<?xml version="1.0" standalone="no"?>
<!DOCTYPE svg PUBLIC "-//W3C//DTD SVG 20010904//EN"
 "http://www.w3.org/TR/2001/REC-SVG-20010904/DTD/svg10.dtd">
<svg version="1.0" xmlns="http://www.w3.org/2000/svg"
 width="593.000000pt" height="750.000000pt" viewBox="0 0 593.000000 750.000000"
 preserveAspectRatio="xMidYMid meet">

<g transform="translate(0.000000,750.000000) scale(0.100000,-0.100000)"
fill="#000000" stroke="none">
<path d="M1869 6840 c-23 -22 -61 -49 -85 -61 -24 -11 -46 -25 -50 -30 -3 -5
-17 -9 -31 -9 -15 0 -33 -10 -45 -25 -11 -14 -24 -23 -28 -20 -5 3 -17 -6 -26
-20 -14 -21 -23 -25 -60 -23 -35 1 -53 -5 -88 -30 -54 -39 -83 -41 -92 -7 -7
29 -22 33 -31 8 -3 -10 -18 -29 -33 -43 -14 -14 -54 -56 -89 -95 -34 -38 -83
-92 -107 -120 -31 -35 -71 -104 -129 -225 -121 -254 -133 -292 -134 -428 -1
-53 -5 -78 -17 -89 -11 -12 -14 -27 -10 -52 17 -113 32 -273 28 -302 -2 -19
-9 -40 -15 -47 -8 -11 -6 -18 11 -30 l22 -17 -20 -33 c-25 -40 -25 -42 0 -42
20 0 28 -24 11 -34 -9 -6 -92 7 -123 19 -35 14 -15 -50 27 -87 11 -9 16 -18
10 -18 -5 -1 22 -12 60 -25 42 -14 71 -19 74 -13 7 21 53 -109 55 -157 1 -34
6 -50 14 -50 8 0 26 -32 41 -71 29 -73 48 -150 32 -126 -7 11 -9 11 -14 -1 -3
-9 1 -21 9 -27 9 -8 14 -9 14 -2 0 6 7 12 17 14 26 5 31 87 18 263 -5 70 -2
117 15 215 19 115 53 264 67 300 3 8 4 41 3 73 -2 62 27 213 44 235 6 7 19 21
29 30 9 9 17 28 17 43 0 45 21 93 57 127 19 17 39 32 44 32 6 0 7 6 4 13 -4 6
2 2 13 -10 16 -18 27 -22 52 -16 30 5 32 4 25 -16 -5 -15 -2 -21 9 -21 9 0 16
6 16 14 0 15 69 13 122 -4 34 -11 72 13 48 30 -11 8 -7 10 20 8 30 -3 35 -6
33 -25 -2 -20 2 -23 28 -23 22 0 30 4 26 13 -8 20 19 18 103 -8 41 -13 118
-28 170 -34 119 -14 189 -3 242 39 20 17 42 30 48 30 6 0 23 12 37 26 18 18
32 24 47 19 11 -4 48 -8 81 -11 33 -2 61 -8 63 -13 2 -6 10 -7 17 -4 8 3 30
-4 48 -16 19 -12 46 -21 60 -21 14 0 29 -4 32 -10 3 -5 14 -10 23 -10 9 0 44
-11 77 -25 47 -18 64 -32 78 -59 50 -96 94 -248 102 -356 4 -41 17 -151 30
-245 42 -305 43 -470 1 -680 -8 -38 -20 -101 -26 -140 -7 -38 -21 -98 -31
-133 -10 -34 -19 -71 -19 -82 0 -11 -6 -20 -14 -20 -15 0 -26 -21 -26 -51 0
-12 -7 -19 -20 -19 -14 0 -20 -7 -20 -21 0 -11 -4 -18 -9 -15 -17 11 -61 -42
-67 -83 -4 -23 -11 -41 -16 -41 -5 0 -6 -5 -3 -10 4 -6 -1 -22 -10 -36 -9 -14
-14 -31 -12 -37 2 -7 -3 -20 -11 -30 -13 -14 -13 -20 -4 -26 9 -6 7 -12 -7
-25 -29 -26 -63 -17 -83 24 -10 19 -18 29 -18 23 0 -23 -20 -14 -21 10 0 17
-2 18 -7 6 -4 -9 -15 -15 -24 -14 -13 2 -16 -4 -16 -28 1 -18 6 -36 12 -40 6
-5 2 -6 -10 -2 -21 5 -47 -15 -50 -39 0 -6 -2 -16 -2 -22 -2 -8 -15 -9 -44 -4
-42 8 -59 3 -83 -27 -8 -11 -35 -19 -68 -22 -5 -1 -6 -10 -2 -20 3 -11 1 -22
-5 -26 -6 -3 -10 3 -10 14 0 27 -20 27 -27 1 -6 -23 -23 -27 -23 -6 0 9 -7 12
-19 9 -16 -4 -18 -11 -14 -39 5 -29 3 -33 -11 -28 -12 5 -19 1 -22 -12 -3 -11
-16 -27 -30 -37 -21 -15 -24 -16 -24 -2 0 21 -17 19 -30 -4 -13 -25 -48 -17
-52 13 -2 16 -10 21 -33 22 -16 0 -36 -4 -43 -10 -10 -7 -17 -5 -24 8 -8 13
-13 15 -24 5 -11 -9 -14 -9 -14 1 0 9 -6 8 -19 -4 -16 -14 -24 -15 -40 -6 -12
6 -26 8 -32 4 -7 -4 -8 7 -4 33 l6 38 -16 -35 c-10 -19 -22 -45 -28 -57 -12
-26 -33 -32 -23 -7 4 10 1 14 -6 12 -7 -3 -17 -19 -22 -36 -5 -18 -15 -32 -22
-32 -8 0 -11 -6 -7 -16 4 -11 13 -13 34 -9 22 5 29 3 29 -9 0 -8 11 -27 25
-42 22 -23 25 -24 31 -9 4 10 14 15 25 12 11 -3 19 0 19 7 0 7 6 21 14 32 14
18 15 17 14 -14 -1 -41 9 -52 21 -21 10 24 10 24 10 2 1 -24 21 -33 21 -10 0
8 3 7 10 -3 7 -12 11 -12 28 3 19 17 20 17 25 -3 7 -25 47 -28 47 -2 0 9 10
23 22 31 21 13 25 11 54 -23 37 -43 58 -45 78 -8 9 15 15 20 16 12 0 -9 10
-24 22 -34 18 -16 23 -17 32 -4 6 8 18 15 26 16 64 4 105 13 119 26 10 9 24
16 32 16 8 0 25 9 39 20 14 11 33 20 42 20 9 0 20 5 23 10 4 6 10 8 15 5 5 -3
12 0 15 6 4 5 13 8 21 5 9 -4 14 2 14 15 0 27 29 69 47 69 8 0 20 14 26 30 6
17 15 30 19 30 4 0 8 12 8 26 0 16 4 23 11 18 9 -5 10 4 5 31 -7 35 -6 37 8
25 25 -20 32 -3 10 21 -19 22 -19 22 9 15 20 -5 27 -3 27 8 0 9 7 12 19 9 15
-4 27 6 48 37 15 23 42 56 60 75 22 23 30 39 26 54 -3 14 -1 21 8 21 14 0 31
40 50 115 10 40 11 53 8 101 -1 15 4 30 11 34 8 5 10 27 6 74 -4 48 -2 68 7
71 16 7 20 67 4 77 -9 6 -9 8 2 8 9 0 11 8 7 26 -7 28 27 148 49 174 11 13 43
127 59 210 3 14 19 40 36 58 24 27 30 42 30 78 0 49 16 57 58 28 33 -23 42 -6
10 17 -15 11 -25 26 -22 33 3 7 -4 21 -16 31 -24 22 -27 84 -6 147 8 24 17 59
20 78 3 19 13 80 23 135 10 57 17 143 16 200 -1 66 2 102 10 107 8 5 9 17 1
46 -10 37 -3 67 19 83 5 4 4 15 -1 25 -6 11 -23 55 -37 99 -28 86 -36 104 -98
235 -37 77 -83 149 -114 175 -11 10 -123 175 -123 181 0 2 -14 26 -31 54 -26
42 -44 57 -100 86 -38 19 -92 43 -120 54 -27 11 -59 29 -70 39 -30 28 -153 63
-244 70 -68 5 -80 9 -79 24 2 17 -3 19 -61 21 -23 1 -29 5 -27 19 4 26 -49 22
-119 -9 -62 -28 -88 -26 -96 5 -3 12 -11 17 -20 14 -9 -4 -16 2 -20 16 -9 34
-47 26 -94 -19z m762 -3223 c-8 -8 -11 -3 -11 19 1 25 2 27 11 11 8 -14 8 -22
0 -30z m-91 -18 c0 -6 -4 -7 -10 -4 -5 3 -10 11 -10 16 0 6 5 7 10 4 6 -3 10
-11 10 -16z m-750 -284 c0 -14 -2 -25 -4 -25 -2 0 -6 11 -8 25 -3 14 -1 25 3
25 5 0 9 -11 9 -25z"/>
<path d="M1438 5530 c-63 -4 -81 -9 -105 -30 -37 -33 -83 -83 -79 -87 1 -2 32
1 67 6 35 5 67 7 72 4 4 -2 7 3 7 12 0 11 6 15 18 11 9 -3 39 -8 65 -11 26 -3
58 -10 70 -14 12 -4 28 -6 35 -4 6 3 12 0 12 -6 0 -5 16 -13 35 -17 19 -3 38
-10 40 -15 3 -4 12 -6 20 -2 8 3 15 1 15 -4 0 -15 48 -34 56 -22 4 6 11 6 21
-3 12 -10 17 -9 25 5 5 10 14 15 20 11 18 -11 -14 40 -41 65 -48 45 -132 94
-143 83 -7 -7 -17 -6 -32 4 -27 17 -76 21 -178 14z"/>
<path d="M2635 5443 c-38 -7 -79 -15 -90 -16 -89 -16 -124 -30 -166 -69 -28
-24 -47 -77 -29 -79 55 -5 97 -3 109 6 10 7 15 6 18 -2 3 -10 10 -10 24 -2 11
5 23 8 28 5 5 -3 28 5 52 18 24 12 51 23 59 24 91 8 180 -7 180 -30 0 -4 13
-8 28 -8 18 0 38 -11 57 -30 32 -33 45 -38 45 -15 0 21 -50 106 -74 127 -62
51 -85 68 -95 68 -6 0 -11 3 -11 8 0 12 -60 10 -135 -5z"/>
<path d="M2396 5251 c5 -11 2 -13 -14 -9 -12 3 -22 3 -24 -1 -2 -4 -18 -17
-35 -30 -18 -12 -33 -30 -33 -40 0 -9 -4 -21 -9 -26 -13 -14 -19 -67 -10 -85
4 -8 11 -28 14 -44 12 -56 155 -169 188 -149 7 4 26 6 44 4 18 -1 47 0 63 4
24 5 30 12 30 34 0 15 -5 32 -12 39 -9 9 -7 12 10 12 12 0 22 -6 22 -12 0 -7
11 -18 24 -24 21 -10 25 -9 29 7 3 10 0 20 -6 22 -14 4 23 67 40 67 6 0 1 -12
-12 -26 -19 -21 -22 -30 -14 -40 13 -16 69 -19 69 -5 0 15 41 24 53 12 6 -6
24 -11 41 -11 l30 0 -22 20 c-12 12 -22 26 -22 33 0 7 -14 24 -30 37 -17 14
-36 30 -43 36 -32 28 -119 46 -205 42 -76 -3 -87 -1 -90 15 -3 12 9 23 40 36
42 19 42 20 13 20 -44 2 -62 15 -46 35 8 9 10 16 5 17 -5 0 -19 2 -32 3 -13 2
-25 -1 -28 -6 -3 -5 -13 -1 -21 9 -8 10 -11 12 -7 4z m164 -180 c0 -6 -4 -13
-10 -16 -5 -3 -10 1 -10 9 0 9 5 16 10 16 6 0 10 -4 10 -9z m-230 -36 c0 -8
-7 -15 -15 -15 -8 0 -15 7 -15 15 0 8 7 15 15 15 8 0 15 -7 15 -15z m163 -5
c3 -11 1 -18 -4 -14 -5 3 -9 12 -9 20 0 20 7 17 13 -6z"/>
<path d="M1630 5211 c0 -5 3 -17 6 -26 5 -13 8 -14 15 -3 6 9 9 8 9 -7 0 -19
-6 -21 -77 -21 -85 0 -141 -21 -195 -72 -39 -36 -36 -50 11 -49 32 2 37 5 28
16 -9 10 -7 16 8 27 10 8 26 14 34 14 18 -1 82 -50 66 -50 -6 0 -16 5 -23 12
-17 17 -25 3 -11 -20 17 -27 97 -39 135 -20 27 13 37 26 48 61 8 25 43 21 52
-5 4 -12 2 -24 -3 -25 -6 -2 -19 -10 -29 -18 -17 -13 -13 -14 40 -11 32 3 64
10 69 15 8 8 6 11 -7 11 -15 0 -16 3 -6 15 6 8 9 23 5 35 -4 11 -2 20 4 20 17
0 13 29 -5 48 -9 9 -26 18 -37 19 -12 2 -24 8 -27 13 -13 21 -110 39 -110 21z
m-90 -101 c0 -5 -4 -10 -10 -10 -5 0 -10 5 -10 10 0 6 5 10 10 10 6 0 10 -4
10 -10z"/>
<path d="M2805 5120 c21 -24 26 -25 19 -6 -3 8 -13 17 -22 21 -13 5 -13 2 3
-15z"/>
<path d="M1570 4969 c0 -5 5 -7 10 -4 6 3 10 8 10 11 0 2 -4 4 -10 4 -5 0 -10
-5 -10 -11z"/>
<path d="M1620 4970 c0 -5 5 -10 11 -10 5 0 7 5 4 10 -3 6 -8 10 -11 10 -2 0
-4 -4 -4 -10z"/>
<path d="M1942 4488 c-22 -22 -12 -88 14 -88 14 0 54 38 54 51 0 9 -41 49 -50
49 -3 0 -11 -5 -18 -12z"/>
<path d="M2212 4457 c-18 -18 -32 -37 -32 -42 0 -15 80 -46 81 -32 0 7 4 2 9
-10 10 -24 34 -31 45 -12 4 6 12 8 19 6 7 -3 13 6 14 21 2 25 2 25 -19 6 -20
-18 -20 -18 -13 10 4 18 3 27 -3 23 -5 -3 -9 4 -8 16 3 35 -5 47 -34 47 -17 0
-38 -12 -59 -33z"/>
<path d="M1102 4378 c-38 -19 -42 -101 -6 -115 22 -8 36 10 39 49 2 18 4 38 5
43 8 35 -1 40 -38 23z"/>
<path d="M2232 4288 c-5 -7 -10 -30 -10 -50 0 -39 6 -43 51 -38 16 1 17 -1 7
-20 -6 -12 -9 -24 -6 -28 3 -3 6 0 6 8 0 9 3 10 14 1 7 -6 21 -9 30 -5 9 3 16
1 16 -6 0 -6 5 -8 10 -5 6 4 8 11 5 16 -4 5 -1 9 4 9 6 0 11 7 11 15 0 17 -16
20 -25 5 -3 -5 -16 -10 -27 -10 -20 0 -20 1 -4 19 18 20 19 66 3 89 -8 10 -13
10 -25 0 -12 -10 -16 -10 -19 0 -3 6 -10 12 -18 12 -7 0 -17 -6 -23 -12z"/>
<path d="M1130 4260 c0 -5 7 -10 15 -10 8 0 15 5 15 10 0 6 -7 10 -15 10 -8 0
-15 -4 -15 -10z"/>
<path d="M1150 4221 c0 -6 5 -13 10 -16 6 -3 10 1 10 9 0 9 -4 16 -10 16 -5 0
-10 -4 -10 -9z"/>
<path d="M1165 4178 c-4 -10 -4 -26 0 -35 8 -17 8 -17 12 0 3 9 3 25 0 35 -4
16 -4 16 -12 0z"/>
<path d="M2552 4060 c0 -14 2 -19 5 -12 2 6 2 18 0 25 -3 6 -5 1 -5 -13z"/>
<path d="M1197 4063 c-10 -10 -8 -43 2 -43 6 0 13 5 17 12 5 7 3 8 -6 3 -9 -5
-10 -2 -5 14 6 21 4 26 -8 14z"/>
<path d="M2132 4045 c-8 -16 -28 -18 -148 -22 -76 -2 -142 -7 -146 -11 -4 -4
14 -7 40 -7 26 1 51 -1 57 -4 5 -3 23 -6 40 -8 16 -1 31 -6 33 -12 2 -6 13 -7
25 -3 27 9 184 8 194 -1 10 -10 35 -8 29 2 -3 5 3 11 14 14 10 3 21 0 22 -5 2
-6 19 -12 38 -14 19 -2 49 -6 65 -8 40 -6 115 13 122 31 3 8 -1 20 -8 28 -15
14 -189 36 -189 23 0 -12 -48 -9 -56 3 -5 8 -9 8 -14 -1 -11 -17 -89 -18 -99
-1 -7 11 -11 10 -19 -4z"/>
<path d="M1680 4010 c-23 -14 8 -21 50 -11 23 6 27 9 13 10 -12 1 -27 3 -35 6
-7 3 -20 1 -28 -5z"/>
<path d="M1215 4000 c-3 -5 -1 -10 4 -10 6 0 11 5 11 10 0 6 -2 10 -4 10 -3 0
-8 -4 -11 -10z"/>
<path d="M1226 3971 c-4 -5 -2 -12 3 -15 4 -3 11 -19 14 -36 4 -16 11 -30 16
-30 5 0 2 19 -6 42 -17 50 -19 53 -27 39z"/>
<path d="M1260 3870 c0 -5 5 -10 10 -10 6 0 10 5 10 10 0 6 -4 10 -10 10 -5 0
-10 -4 -10 -10z"/>
<path d="M1555 3574 c-10 -8 -13 -14 -7 -14 15 0 16 -27 1 -32 -6 -2 -12 -22
-13 -43 -1 -37 1 -40 24 -37 18 2 21 0 11 -6 -11 -8 -10 -15 5 -40 14 -25 21
-29 32 -20 10 9 15 9 21 0 5 -8 14 -7 35 3 16 8 34 15 42 15 7 0 18 9 24 19
14 27 13 36 -3 23 -19 -16 -102 -28 -93 -14 4 7 14 12 22 12 8 0 14 4 14 9 0
5 3 17 6 25 5 14 2 15 -20 6 -36 -13 -33 6 4 25 38 20 39 36 2 29 -25 -5 -28
-3 -27 21 0 23 -5 28 -31 30 -17 1 -39 -4 -49 -11z"/>
<path d="M1660 3580 c0 -5 5 -10 11 -10 5 0 7 5 4 10 -3 6 -8 10 -11 10 -2 0
-4 -4 -4 -10z"/>
<path d="M2757 3564 c-8 -8 1 -24 14 -24 5 0 9 7 9 15 0 15 -12 20 -23 9z"/>
<path d="M1695 3484 c-9 -9 -13 -19 -10 -22 3 -3 15 4 28 16 12 12 16 22 10
22 -6 0 -19 -7 -28 -16z"/>
<path d="M1900 3450 c0 -5 5 -10 11 -10 5 0 7 5 4 10 -3 6 -8 10 -11 10 -2 0
-4 -4 -4 -10z"/>
<path d="M3418 3363 c-10 -3 -18 -9 -18 -14 0 -5 -6 -8 -12 -6 -8 1 -14 -10
-16 -26 -3 -22 -6 -26 -17 -17 -10 9 -17 4 -31 -19 -10 -17 -21 -31 -25 -31
-4 0 -40 -33 -80 -72 -70 -69 -106 -101 -180 -158 -17 -14 -62 -51 -100 -82
-37 -32 -73 -58 -78 -58 -6 0 -11 -5 -11 -11 0 -5 -4 -8 -9 -4 -5 3 -12 -4
-16 -15 -3 -11 -17 -23 -29 -26 -13 -3 -28 -16 -35 -30 -6 -13 -16 -24 -23
-24 -7 0 -24 -12 -37 -25 -13 -14 -30 -25 -38 -25 -9 0 -13 -6 -10 -14 5 -11
-1 -13 -27 -9 -20 3 -36 1 -40 -6 -4 -6 -18 -11 -31 -11 -16 0 -28 -9 -37 -27
-7 -16 -23 -29 -36 -31 -12 -2 -22 -8 -22 -13 0 -5 -8 -9 -17 -9 -9 0 -25 -7
-35 -17 -11 -9 -18 -11 -18 -5 0 7 -4 12 -10 12 -10 0 -32 -69 -25 -81 3 -4
-1 -9 -7 -11 -9 -3 -12 -23 -10 -65 3 -59 2 -61 -25 -68 l-28 -7 29 -11 c22
-7 31 -6 37 4 4 9 23 14 48 14 23 0 41 3 41 7 0 5 4 8 9 8 4 0 6 -12 3 -26 -4
-25 -3 -26 22 -22 27 5 30 -2 29 -67 0 -10 9 -27 21 -36 20 -16 21 -16 35 5
21 29 53 55 69 56 7 0 15 7 18 15 4 8 11 12 16 9 6 -4 6 -9 -2 -14 -7 -4 -16
-41 -20 -82 -4 -40 -13 -85 -20 -98 -8 -14 -13 -42 -11 -62 1 -20 -3 -39 -9
-43 -20 -12 -10 -35 15 -35 28 0 44 25 26 43 -16 16 -14 37 3 37 10 0 16 13
18 36 3 33 6 37 33 40 20 2 25 0 16 -6 -12 -7 -13 -11 -2 -24 18 -22 9 -140
-14 -185 -19 -36 -20 -36 -51 16 -7 10 -15 15 -20 10 -4 -4 -2 -13 4 -19 13
-13 17 -88 4 -88 -14 0 -32 23 -32 42 0 10 -4 18 -10 18 -6 0 -8 -24 -5 -60 4
-48 3 -60 -9 -60 -8 0 -18 5 -21 10 -5 8 -11 7 -21 -1 -16 -13 -9 -29 13 -29
20 0 63 -46 63 -67 0 -13 3 -13 15 -3 12 10 18 10 30 0 8 -7 14 -18 13 -24 -3
-17 12 -56 23 -56 5 0 9 -5 9 -11 0 -6 9 -24 21 -40 23 -33 22 -72 -2 -77 -8
-1 -27 8 -41 21 -19 18 -25 31 -21 51 3 14 9 26 14 26 5 0 9 5 9 12 0 6 -3 8
-7 5 -3 -4 -12 1 -19 11 -11 16 -13 16 -31 0 -12 -11 -27 -15 -42 -11 -17 4
-28 1 -37 -12 -19 -26 -17 -45 4 -45 15 -1 15 -2 -2 -15 -11 -9 -29 -12 -39
-9 -17 5 -19 3 -12 -12 16 -38 11 -59 -12 -57 -30 3 -76 -15 -68 -26 3 -5 0
-13 -6 -17 -6 -3 -15 -1 -19 6 -4 6 -20 10 -36 8 -22 -2 -30 -10 -38 -36 -8
-30 -12 -32 -39 -26 -25 5 -29 4 -24 -11 4 -9 7 -26 7 -38 0 -17 3 -19 9 -8 5
7 14 10 21 6 6 -4 23 -1 37 6 28 15 52 5 68 -29 5 -12 15 -22 21 -22 20 0 25
-30 9 -53 -13 -21 -15 -25 -15 -44 0 -5 -4 -2 -9 5 -4 7 -24 14 -44 15 -20 1
-37 5 -37 10 0 19 -30 4 -41 -22 -7 -16 -18 -27 -24 -23 -5 4 -32 7 -60 7
l-50 1 3 56 c3 50 1 58 -19 69 -17 9 -24 9 -27 0 -2 -6 -11 -11 -19 -11 -12 0
-14 7 -10 30 5 22 0 36 -18 58 -13 16 -22 32 -19 35 3 2 -2 21 -10 41 -10 25
-21 36 -35 36 -23 0 -26 12 -11 41 9 16 7 19 -10 19 -24 0 -25 4 -6 33 8 12
18 39 21 60 6 30 4 37 -8 37 -24 0 -31 19 -13 39 17 19 22 61 7 61 -5 0 -11
-9 -14 -20 -7 -27 -27 -25 -27 2 l0 22 -16 -22 c-8 -12 -23 -22 -32 -22 -14 0
-13 -3 5 -18 20 -16 31 -78 12 -66 -5 3 -9 12 -9 20 0 8 -6 14 -12 14 -18 0
-38 47 -38 87 0 35 -10 42 -29 19 -9 -11 -9 -16 -1 -21 12 -8 7 -41 -13 -87
-16 -37 -27 -35 -27 2 0 21 5 30 16 30 25 0 14 45 -12 46 -32 2 -42 11 -37 37
4 19 10 23 27 20 26 -5 39 15 26 37 -7 11 -14 12 -35 2 -14 -7 -35 -12 -47
-12 -15 0 -18 -4 -13 -17 15 -41 16 -70 2 -81 -20 -17 -27 3 -33 98 -6 85 -9
100 -23 100 -6 0 -7 -23 -4 -55 5 -45 2 -59 -12 -75 -17 -19 -55 -27 -68 -14
-9 10 4 34 19 34 8 0 14 5 14 11 0 6 -6 9 -13 6 -8 -3 -20 -1 -28 4 -11 7 -5
17 30 48 28 24 40 41 32 45 -6 4 -11 0 -12 -11 0 -14 -2 -14 -9 5 -5 12 -14
22 -20 22 -5 0 -10 7 -10 15 0 8 5 15 10 15 6 0 10 11 10 25 0 18 -5 25 -20
25 -11 0 -20 -5 -20 -11 0 -6 -9 -9 -19 -6 -12 3 -22 -1 -25 -10 -9 -23 -8
-24 20 -19 23 4 24 3 12 -11 -8 -10 -12 -34 -10 -63 4 -51 -13 -76 -30 -46 -9
16 -11 16 -27 -1 -17 -17 -17 -20 5 -55 l23 -36 -24 -6 c-14 -4 -25 -12 -25
-19 0 -25 -25 -65 -40 -65 -8 1 -22 -1 -30 -3 -18 -5 -26 48 -10 71 9 13 11
13 20 0 8 -12 10 -11 10 7 0 12 4 25 10 28 6 3 10 50 9 106 l-1 101 -28 -32
c-29 -32 -40 -67 -40 -129 -1 -30 -2 -33 -11 -18 -12 21 -29 13 -29 -14 0 -14
-7 -19 -28 -19 -36 0 -55 -21 -76 -83 -22 -66 -20 -79 14 -99 33 -19 32 -43
-3 -54 -16 -5 -28 2 -52 31 -29 34 -32 43 -29 94 6 96 19 164 47 232 15 36 27
75 27 86 0 12 6 23 13 26 8 3 14 20 15 39 0 20 9 39 21 50 12 9 21 23 21 31 0
8 6 20 14 26 7 6 16 37 19 68 4 36 12 60 22 65 8 5 13 13 10 18 -6 10 -44 -7
-56 -24 -4 -4 -9 -3 -13 2 -3 6 17 39 46 74 29 35 67 81 84 103 17 22 55 71
84 110 34 44 45 62 28 50 -96 -74 -156 -114 -250 -169 -58 -35 -140 -91 -181
-124 -101 -83 -241 -222 -272 -272 -14 -23 -32 -43 -40 -47 -8 -3 -15 -11 -15
-19 0 -7 -15 -24 -33 -38 -34 -26 -79 -97 -108 -171 -8 -22 -20 -39 -26 -38
-7 1 -9 -7 -5 -20 5 -19 3 -20 -10 -9 -13 11 -18 6 -35 -30 -43 -91 -46 -115
-39 -267 6 -125 13 -170 51 -316 24 -94 49 -222 56 -285 6 -63 21 -151 32
-195 13 -56 21 -133 26 -257 l6 -177 30 -31 c39 -41 62 -53 89 -46 21 5 23 11
20 58 l-3 53 9 -50 c4 -27 9 -78 9 -112 l1 -63 565 0 565 0 1 23 c1 12 0 65
-2 117 -5 144 -4 178 13 267 23 131 35 128 45 -8 8 -118 8 -116 -9 -162 -17
-43 -12 -97 8 -97 21 0 17 -46 -6 -61 -11 -8 -23 -29 -26 -46 l-6 -33 1981 0
1981 0 -1 1288 0 1287 -81 70 c-152 132 -293 241 -328 255 -19 7 -42 21 -51
29 -9 9 -30 27 -47 40 -17 14 -33 35 -36 47 -7 25 -55 44 -113 44 -31 0 -170
20 -285 40 -41 8 -64 8 -78 0 -17 -9 -28 -7 -54 9 -27 17 -45 20 -92 17 -33
-3 -70 -9 -84 -14 -14 -5 -52 -6 -84 -2 -33 3 -92 4 -132 1 -58 -5 -78 -11
-98 -30 -22 -21 -29 -23 -51 -13 -30 14 -31 22 -5 55 l21 26 -33 -3 c-18 -1
-57 -10 -86 -20 -28 -10 -58 -16 -65 -13 -10 4 -72 -26 -87 -42 -11 -12 -88
-51 -101 -51 -8 0 -2 11 14 27 15 15 37 28 49 28 16 0 23 6 23 20 0 17 -6 20
-37 17 -56 -4 -52 24 5 33 23 4 47 10 52 14 6 3 22 6 37 6 15 0 29 5 30 10 3
12 -119 36 -149 30 -16 -4 -23 -1 -23 10 0 8 -8 15 -18 15 -10 0 -33 11 -52
25 -18 14 -50 27 -69 30 -47 8 -115 27 -121 36 -3 3 -33 8 -67 11 -48 3 -63 1
-63 -9 0 -26 -31 -26 -59 1 -15 14 -30 23 -34 20 -4 -4 -15 -1 -24 8 -10 8
-26 13 -35 11z m-288 -623 c0 -5 -5 -10 -11 -10 -5 0 -7 5 -4 10 3 6 8 10 11
10 2 0 4 -4 4 -10z m-40 -32 c0 -7 -16 -21 -35 -30 -29 -15 -35 -15 -35 -3 0
7 12 20 28 28 35 19 42 20 42 5z m343 -97 c-2 -6 2 -11 7 -11 6 0 10 5 10 12
0 8 6 6 17 -5 22 -22 24 -59 4 -74 -14 -10 -14 -13 2 -30 9 -11 17 -25 17 -31
0 -7 5 -12 10 -12 6 0 10 -9 10 -21 0 -11 4 -18 9 -15 14 9 38 -26 43 -62 6
-41 -12 -51 -47 -28 -25 16 -70 14 -112 -6 -18 -9 -27 -8 -43 7 -11 10 -20 28
-20 40 0 13 -6 28 -14 34 -20 17 -30 -4 -11 -22 21 -21 19 -37 -5 -37 -11 0
-23 1 -26 3 -4 1 -10 -8 -15 -20 -5 -13 -16 -23 -25 -23 -13 0 -14 3 -5 14 10
12 7 21 -17 45 -16 17 -33 31 -39 31 -11 0 -43 69 -43 93 0 8 -6 17 -12 20 -7
2 1 11 18 20 37 19 44 15 44 -30 0 -31 2 -33 20 -23 11 6 20 20 20 30 0 13 7
20 20 20 11 0 20 -5 20 -12 0 -6 8 -4 20 7 13 12 27 15 44 11 36 -9 41 10 6
24 -34 14 -37 22 -15 40 11 9 22 9 46 1 41 -14 39 -15 39 10 0 12 5 19 13 16
6 -2 11 -10 10 -16z m-910 -81 c-3 -11 -9 -17 -14 -15 -10 7 -1 35 11 35 5 0
6 -9 3 -20z m1171 -22 c15 -74 15 -88 2 -88 -8 0 -17 -6 -19 -12 -3 -7 -8 2
-12 20 -7 28 -11 32 -41 32 -32 0 -34 2 -28 28 9 36 11 37 24 13 14 -28 26
-26 34 4 8 31 34 33 40 3z m-1250 -18 c16 0 17 -3 8 -12 -7 -7 -12 -20 -12
-30 0 -10 -7 -18 -17 -18 -9 0 -25 -7 -35 -17 -25 -22 -34 -9 -18 25 7 15 17
37 23 50 7 15 14 19 21 12 5 -5 19 -10 30 -10z m1110 -35 c-4 -8 -10 -12 -15
-9 -14 8 -10 24 6 24 9 0 12 -6 9 -15z m171 -55 c3 -5 -1 -10 -10 -10 -9 0
-13 5 -10 10 3 6 8 10 10 10 2 0 7 -4 10 -10z m-252 -126 c9 -9 -4 -35 -14
-28 -5 3 -9 12 -9 20 0 14 12 19 23 8z m-2260 -48 c-17 -22 -131 -160 -215
-261 -20 -25 -38 -50 -41 -57 -2 -7 -8 -10 -12 -6 -10 9 2 53 18 70 7 7 29 38
49 68 34 54 91 112 156 160 17 13 32 29 32 35 0 6 6 17 12 23 21 21 22 -5 1
-32z m2476 -3 c-4 -24 4 -32 29 -30 23 2 27 -2 30 -25 3 -25 0 -28 -27 -28
-17 0 -45 9 -62 19 -17 11 -38 17 -45 14 -8 -3 -14 1 -14 9 0 15 29 34 65 41
11 3 21 5 23 6 1 0 1 -2 1 -6z m-309 -22 c0 -11 -11 -32 -25 -47 l-25 -27 0
24 c0 13 -4 31 -9 39 -14 20 -4 30 30 30 22 0 29 -5 29 -19z m-298 -56 c0 -5
-5 -11 -11 -13 -6 -2 -11 4 -11 13 0 9 5 15 11 13 6 -2 11 -8 11 -13z m-2117
-3 c-12 -8 -144 -184 -171 -227 -30 -48 -54 -59 -54 -26 0 31 197 261 223 261
8 0 8 -3 2 -8z m1858 -25 c-6 -12 -16 -41 -22 -64 -13 -48 -32 -55 -55 -21
-32 46 -14 85 49 105 37 13 41 9 28 -20z m97 -12 c11 -13 8 -15 -18 -15 -31 0
-47 11 -35 24 11 11 40 6 53 -9z m4 -56 c-24 -27 -52 -42 -64 -34 -15 9 33 53
59 54 24 1 24 1 5 -20z m948 -26 c52 -52 13 -80 -71 -50 -20 6 -44 21 -53 32
-18 20 -18 20 -36 -3 -19 -25 -32 -20 -32 12 0 31 37 45 104 41 49 -3 64 -8
88 -32z m-297 -37 c0 -25 -15 -29 -39 -11 -22 17 -12 37 17 33 14 -2 22 -10
22 -22z m-745 -22 c0 -8 -4 -12 -10 -9 -5 3 -10 10 -10 16 0 5 5 9 10 9 6 0
10 -7 10 -16z m23 -56 c-10 -21 -12 -21 -18 -5 -10 25 2 54 17 39 8 -8 8 -18
1 -34z m-33 -78 c0 -33 -17 -49 -26 -26 -8 22 4 68 16 61 6 -3 10 -19 10 -35z
m-1305 -10 c-27 -12 -43 -12 -25 0 8 5 22 9 30 9 10 0 8 -3 -5 -9z m1212 -7
c2 -5 -5 -21 -16 -34 l-20 -24 -1 31 c0 17 3 34 7 38 9 8 26 3 30 -11z m-47
-76 c0 -26 -15 -12 -25 23 -7 22 -6 23 9 11 9 -7 16 -23 16 -34z m89 14 c-3
-6 -10 -7 -18 -2 -7 5 -10 14 -6 21 9 14 29 -2 24 -19z m-1142 -33 c-3 -8 -6
-5 -6 6 -1 11 2 17 5 13 3 -3 4 -12 1 -19z m-304 -23 c1 -6 -8 -11 -20 -13
-18 -3 -23 2 -23 17 0 16 4 19 21 13 11 -5 21 -12 22 -17z m307 -17 c0 -16 -3
-19 -11 -11 -6 6 -8 16 -5 22 11 17 16 13 16 -11z m103 -42 c5 -16 6 -31 0
-35 -4 -3 -16 -18 -26 -33 -22 -35 -37 -36 -37 -2 0 14 4 23 9 20 5 -3 6 15 3
40 -5 43 -4 46 18 42 15 -2 27 -13 33 -32z m1187 31 c0 -2 -7 -18 -16 -36 -12
-23 -19 -30 -27 -22 -13 13 10 61 30 61 7 0 13 -2 13 -3z m-1672 -29 c-6 -18
-28 -21 -28 -4 0 9 7 16 16 16 9 0 14 -5 12 -12z m642 -69 c0 -11 -5 -30 -11
-41 -8 -15 -8 -22 1 -28 7 -4 8 -10 3 -13 -18 -11 -33 40 -22 73 12 34 29 40
29 9z m-320 -20 c0 -24 -4 -30 -17 -27 -11 2 -19 14 -21 31 -3 22 1 27 17 27
17 0 21 -6 21 -31z m1900 11 c0 -11 -4 -20 -10 -20 -5 0 -10 9 -10 20 0 11 5
20 10 20 6 0 10 -9 10 -20z m-863 -26 c-9 -9 -28 6 -21 18 4 6 10 6 17 -1 6
-6 8 -13 4 -17z m-1647 -123 c-12 -23 -14 -81 -2 -81 4 0 8 -33 10 -73 2 -77
1 -80 -55 -131 l-33 -29 -15 36 c-8 19 -19 38 -25 42 -12 8 5 45 22 45 16 0
37 32 38 58 0 13 5 32 10 42 6 11 12 32 15 47 3 15 9 57 15 93 16 94 24 104
28 33 2 -35 -2 -71 -8 -82z m1890 126 c0 -8 -3 -17 -7 -20 -9 -9 -34 13 -27
24 8 14 34 11 34 -4z m-1220 -12 c0 -8 -4 -15 -10 -15 -5 0 -10 7 -10 15 0 8
5 15 10 15 6 0 10 -7 10 -15z m326 -29 c6 -25 -1 -46 -15 -46 -11 0 -21 38
-14 56 8 22 22 17 29 -10z m-780 -21 c18 -13 17 -14 -18 -15 -20 0 -39 -6 -41
-12 -4 -10 -8 -9 -16 2 -14 20 -4 28 50 39 3 0 14 -6 25 -14z m1924 -11 c0
-16 -16 -19 -25 -4 -8 13 4 32 16 25 5 -4 9 -13 9 -21z m-1145 -115 c-10 -15
-22 -10 -40 18 -17 25 -17 27 1 40 17 13 20 11 32 -17 7 -17 10 -35 7 -41z
m65 -41 c0 -22 -12 -29 -30 -18 -11 7 -12 13 -1 36 10 22 14 25 22 13 5 -7 9
-22 9 -31z m563 18 c6 -14 0 -26 -14 -26 -3 0 -9 9 -12 20 -6 23 18 28 26 6z
m-479 -138 c-13 -46 -23 -55 -24 -22 0 31 6 44 22 44 5 0 6 -10 2 -22z m-1264
-109 c9 -16 14 -18 26 -8 8 6 18 9 21 5 11 -10 13 -76 4 -76 -5 0 -12 -19 -15
-43 -4 -23 -13 -55 -21 -71 -14 -26 -14 -30 2 -42 14 -10 16 -17 7 -31 -6 -10
-17 -18 -25 -18 -8 -1 -13 -7 -11 -14 1 -7 -7 -15 -18 -18 -11 -3 -20 -12 -20
-20 0 -8 4 -12 9 -8 5 3 12 1 16 -5 11 -18 27 -11 22 10 -3 11 -2 20 3 20 21
0 18 -53 -7 -122 -21 -57 -28 -93 -29 -168 -2 -57 -7 -96 -13 -98 -6 -2 -11 9
-11 27 0 17 -8 65 -17 106 -15 72 -15 81 1 149 13 57 15 79 5 102 -14 36 -5
160 17 226 8 25 17 59 18 75 2 15 4 31 5 36 2 14 21 7 31 -14z m1463 -101 c-1
-60 -22 -89 -44 -62 -9 12 -10 18 -3 21 6 2 9 15 6 28 -2 14 1 39 8 56 18 43
35 21 33 -43z m-184 43 c16 -11 36 -18 48 -15 25 7 47 -19 38 -44 -3 -11 -15
-22 -26 -25 -12 -3 -18 -10 -14 -16 7 -12 -22 -4 -42 12 -9 6 -13 6 -13 -2 0
-6 -9 -11 -20 -11 -11 0 -20 -3 -21 -7 -6 -73 -4 -136 5 -155 11 -22 9 -38
-12 -98 -3 -8 -6 -19 -7 -25 -1 -15 -15 -35 -25 -35 -4 0 -11 42 -15 93 -5 71
-3 105 9 145 8 29 18 80 22 115 10 90 24 103 73 68z m1021 -161 c12 -23 6 -40
-15 -40 -16 0 -29 35 -20 50 10 16 23 12 35 -10z m-999 -133 c-13 -13 -26 -3
-16 12 3 6 11 8 17 5 6 -4 6 -10 -1 -17z m-31 -102 c0 -8 -4 -15 -9 -15 -5 0
-11 7 -15 15 -3 9 0 15 9 15 8 0 15 -7 15 -15z m140 -14 c0 -9 -4 -22 -8 -29
-6 -9 -12 -6 -20 12 -12 26 -9 33 13 33 8 0 15 -7 15 -16z m-190 -375 c-1 -21
-1 -21 -15 -2 -19 25 -19 37 0 30 8 -4 15 -16 15 -28z"/>
<path d="M3440 2554 c0 -8 5 -12 10 -9 6 4 8 11 5 16 -9 14 -15 11 -15 -7z"/>
<path d="M3340 2495 c0 -8 5 -15 10 -15 6 0 10 7 10 15 0 8 -4 15 -10 15 -5 0
-10 -7 -10 -15z"/>
<path d="M3390 2385 c-10 -13 -9 -15 9 -15 11 0 21 4 21 9 0 18 -18 21 -30 6z"/>
<path d="M3223 3267 c5 -15 37 -22 37 -9 0 5 -9 12 -21 15 -13 3 -19 1 -16 -6z"/>
<path d="M2077 3224 c-6 -33 -1 -42 13 -28 7 7 7 20 2 34 -9 24 -9 24 -15 -6z"/>
<path d="M3079 3158 c-6 -13 -19 -32 -29 -43 -10 -11 -21 -31 -25 -43 -7 -24
-7 -24 22 -6 41 26 103 86 103 101 0 23 -58 16 -71 -9z"/>
<path d="M1735 2742 c5 -71 12 -86 68 -157 46 -59 70 -74 117 -75 l35 0 -35
21 c-45 27 -100 88 -126 142 -12 23 -31 62 -43 87 l-22 45 6 -63z"/>
<path d="M1607 2687 c-20 -25 -37 -48 -37 -52 0 -4 -25 -32 -55 -63 -30 -31
-58 -66 -61 -77 -4 -11 -22 -37 -40 -58 -19 -20 -34 -46 -34 -57 0 -11 -7 -23
-15 -26 -13 -5 -13 -10 0 -41 22 -51 19 -100 -5 -113 -21 -11 -28 -40 -10 -40
6 0 10 -8 8 -17 -2 -12 3 -18 17 -18 21 0 88 107 100 160 4 17 11 35 16 41 12
14 48 124 49 145 0 8 9 34 20 57 11 22 20 45 20 51 0 5 16 37 35 72 45 78 41
95 -8 36z"/>
<path d="M1702 2660 c0 -19 6 -51 13 -70 17 -45 18 -30 1 45 -11 48 -14 53
-14 25z"/>
<path d="M2104 2485 c-3 -8 -7 -29 -8 -47 -1 -27 3 -33 18 -31 11 1 25 -6 32
-15 10 -14 13 -13 23 6 12 23 14 61 5 86 -8 21 -63 21 -70 1z"/>
<path d="M1650 2394 c0 -8 5 -12 10 -9 6 3 10 10 10 16 0 5 -4 9 -10 9 -5 0
-10 -7 -10 -16z"/>
<path d="M1606 2348 c-2 -7 -9 -30 -15 -51 -10 -29 -10 -41 -1 -52 7 -8 15
-30 20 -48 6 -28 4 -37 -11 -48 -26 -19 -24 -39 5 -39 27 0 41 -26 30 -55 -5
-13 -3 -16 7 -13 9 3 14 18 13 42 -1 20 3 36 7 36 5 0 9 -3 9 -7 0 -5 19 -8
42 -7 69 1 81 -5 74 -37 -3 -16 -1 -31 3 -34 15 -9 20 21 9 63 -9 37 -13 40
-49 44 -22 2 -44 1 -50 -2 -5 -4 -23 -5 -39 -2 -28 4 -29 5 -14 28 10 14 14
34 10 51 -4 17 0 40 9 57 16 30 12 65 -9 78 -18 12 -46 9 -50 -4z"/>
<path d="M2157 2345 c-9 -8 -20 -15 -26 -15 -6 0 -11 -14 -11 -31 0 -30 2 -31
31 -25 17 3 39 6 49 6 18 0 35 49 22 61 -17 17 -51 19 -65 4z"/>
<path d="M2005 2293 c30 -31 88 -29 93 2 2 18 -3 20 -57 21 l-61 1 25 -24z"/>
<path d="M2140 2230 c0 -5 5 -10 10 -10 6 0 10 5 10 10 0 6 -4 10 -10 10 -5 0
-10 -4 -10 -10z"/>
<path d="M1508 2193 c-17 -19 -87 -144 -73 -131 4 4 20 -1 35 -12 34 -24 42
-16 60 56 9 33 10 60 4 78 -9 27 -10 27 -26 9z"/>
<path d="M782 2088 c-15 -15 -16 -28 -2 -28 6 0 10 6 10 14 0 8 6 17 13 19 6
3 7 6 2 6 -6 1 -16 -4 -23 -11z"/>
<path d="M2184 2067 c-9 -25 4 -67 21 -67 11 0 13 8 8 33 -7 40 -20 56 -29 34z"/>
<path d="M1720 2052 c0 -4 5 -13 11 -19 18 -18 2 -35 -20 -21 -13 8 -26 7 -54
-7 -31 -15 -34 -19 -22 -31 17 -18 105 -19 106 -1 1 6 1 15 0 20 0 4 4 7 9 7
14 0 13 33 -2 48 -14 14 -28 16 -28 4z"/>
<path d="M1460 1950 c0 -5 5 -10 10 -10 6 0 10 5 10 10 0 6 -4 10 -10 10 -5 0
-10 -4 -10 -10z"/>
<path d="M1780 1878 c0 -20 1 -21 20 -3 11 10 20 20 20 22 0 1 -9 3 -20 3 -14
0 -20 -7 -20 -22z"/>
<path d="M2410 1824 c0 -8 5 -12 10 -9 6 3 10 10 10 16 0 5 -4 9 -10 9 -5 0
-10 -7 -10 -16z"/>
<path d="M2040 1810 c0 -5 5 -10 10 -10 6 0 10 5 10 10 0 6 -4 10 -10 10 -5 0
-10 -4 -10 -10z"/>
<path d="M2270 1771 c0 -17 5 -31 10 -31 6 0 10 11 10 24 0 14 -4 28 -10 31
-6 4 -10 -7 -10 -24z"/>
<path d="M2360 1786 c-6 -9 -10 -21 -8 -28 3 -8 9 -4 17 10 15 28 9 39 -9 18z"/>
<path d="M2070 1760 c0 -19 3 -21 12 -12 9 9 9 15 0 24 -9 9 -12 7 -12 -12z"/>
<path d="M2270 1710 c0 -5 5 -10 10 -10 6 0 10 5 10 10 0 6 -4 10 -10 10 -5 0
-10 -4 -10 -10z"/>
<path d="M2584 1659 c-8 -14 13 -18 30 -6 16 12 16 13 -4 13 -12 0 -23 -4 -26
-7z"/>
<path d="M2000 1636 c0 -9 5 -16 10 -16 6 0 10 4 10 9 0 6 -4 13 -10 16 -5 3
-10 -1 -10 -9z"/>
<path d="M2057 1600 c-12 -17 -20 -21 -23 -12 -10 22 -23 13 -22 -15 0 -16 -3
-39 -7 -52 -7 -22 -6 -23 18 -17 27 6 27 6 41 -57 6 -23 9 -26 26 -17 27 15
40 12 40 -7 0 -13 9 -18 30 -19 34 -1 36 3 15 30 -8 11 -15 30 -15 43 0 25
-10 29 -27 12 -17 -17 -51 40 -55 91 l-3 44 -18 -24z"/>
<path d="M2230 1610 c0 -5 5 -10 11 -10 5 0 7 5 4 10 -3 6 -8 10 -11 10 -2 0
-4 -4 -4 -10z"/>
<path d="M2210 1545 c0 -17 7 -38 15 -49 13 -17 14 -15 8 20 -7 49 -23 69 -23
29z"/>
<path d="M2360 1495 c0 -8 4 -15 9 -15 5 0 14 7 21 15 10 13 9 15 -9 15 -12 0
-21 -6 -21 -15z"/>
<path d="M2180 1285 c0 -8 5 -15 10 -15 6 0 10 7 10 15 0 8 -4 15 -10 15 -5 0
-10 -7 -10 -15z"/>
</g>
</svg>
